<?xml version="1.0" encoding="UTF-8"?>
<svg id="Layer_1" data-name="Layer 1" xmlns="http://www.w3.org/2000/svg" viewBox="0 0 822.13 841.68">
  <defs>
    <style>
      .cls-1 {
        fill: #eb2126;
      }

      .cls-2 {
        fill: #fff;
      }
    </style>
  </defs>
  <g>
    <path class="cls-2" d="M507.54,841.68c-14.36,0-26-11.64-26-26v-97.69c0-38.12-31.02-69.14-69.14-69.14s-69.14,31.01-69.14,69.14v97.69c0,14.36-11.64,26-26,26s-26-11.64-26-26v-97.69c0-66.8,54.34-121.14,121.14-121.14s121.14,54.34,121.14,121.14v97.69c0,14.36-11.64,26-26,26Z"/>
    <path class="cls-2" d="M705.79,841.68c-.77,0-1.53,0-2.3-.02-31.81-.59-61.78-13.42-84.37-36.12-22.59-22.7-35.28-52.72-35.72-84.54-.46-33.04,12.06-64.18,35.24-87.69,23.19-23.51,54.14-36.46,87.16-36.46,47.9,0,91.66,28.18,111.48,71.8,7.62,16.75,6.19,36.03-3.81,51.57-10.1,15.68-27.25,25.05-45.88,25.05h-127.14c10.31,25.47,35.23,43.87,64,44.4,17.92.29,35.13-6.08,48.42-18.04,10.67-9.61,27.11-8.74,36.72,1.93,9.61,10.67,8.74,27.11-1.93,36.72-22.55,20.3-51.55,31.4-81.87,31.4ZM640.32,693.26h127.27c.34,0,1.38,0,2.16-1.2.62-.96.34-1.57.19-1.9-11.41-25.1-36.59-41.32-64.15-41.32-18.99,0-36.8,7.45-50.14,20.97-6.74,6.83-11.91,14.79-15.34,23.44Z"/>
    <path class="cls-2" d="M122.41,841.68C54.91,841.68,0,786.76,0,719.26s54.91-122.41,122.41-122.41,122.41,54.91,122.41,122.41-54.91,122.41-122.41,122.41ZM122.41,648.85c-38.83,0-70.41,31.59-70.41,70.41s31.59,70.41,70.41,70.41,70.41-31.59,70.41-70.41-31.59-70.41-70.41-70.41Z"/>
    <path class="cls-2" d="M156.17,532.22c-6.29,0-12.67-1.34-18.75-4.17-22.28-10.37-31.94-36.84-21.57-59.12L300.96,71.23C321.35,27.41,364.05.11,412.38,0c.1,0,.2,0,.3,0,48.21,0,90.9,27.07,111.46,70.71l187.52,398.03c10.47,22.23.94,48.75-21.29,59.22-22.24,10.48-48.75.94-59.22-21.29L443.63,108.64c-8.34-17.7-24.37-19.64-30.96-19.64h-.08c-6.54.02-22.66,1.97-30.94,19.78l-185.1,397.7c-7.54,16.21-23.6,25.73-40.37,25.73Z"/>
  </g>
  <circle class="cls-1" cx="413.8" cy="318.46" r="88.01"/>
</svg>