<svg width="336" height="108" viewBox="0 0 336 108" fill="none" xmlns="http://www.w3.org/2000/svg">
<path d="M34.1357 0.778076L-57.5977 0.778076V5.17831C-47.0174 5.64149 -43.6407 7.14683 -43.6407 18.4948L-43.6407 95.0356C-43.6407 106.847 -47.0174 107.889 -57.5977 108.352L-57.5977 112.289L-6.15946 112.289L-6.15946 108.468C-19.1034 108.005 -22.0299 106.499 -22.0299 95.1514L-22.0299 58.5601H-3.34555C10.6114 58.5601 17.2522 62.0339 19.7285 74.8872H24.0056L24.0056 35.4009H19.7285C17.815 47.2121 13.9881 50.2228 -3.34555 50.2228H-22.0299L-22.0299 14.5577C-22.0299 10.1575 -21.0169 9.11535 -15.8393 9.11535L0.481358 9.11535C22.0922 9.11535 25.9191 13.0524 29.746 25.4425H34.0231V0.778076L34.1357 0.778076Z" fill="black" fill-opacity="0.06"/>
<path d="M120.586 100.248L94.5395 66.5577L108.671 50.9897C118.093 41.1381 123.496 35.9082 131.67 35.4217V30.7999L95.0937 30.7999V35.4217C101.605 35.4217 104.515 37.0028 104.515 40.6516C104.515 43.8138 100.359 47.9491 96.8948 50.9897L88.582 59.2602L79.1607 46.8545C76.8054 44.3003 75.0043 42.2327 75.0043 39.5569C75.0043 37.0028 78.6066 35.4217 84.4256 35.4217V30.7999L35.3797 30.7999V35.4217C42.4457 37.0028 45.4937 40.6516 48.9574 45.2733L73.2032 76.4094L53.1138 97.2073C46.0479 104.505 42.4457 107.059 34.1328 108.154V112.289H70.1552V108.032C65.4445 108.032 60.0412 106.937 60.0412 104.383C60.0412 101.829 63.6434 98.1803 69.4624 91.9774L77.7753 83.0988L87.8892 96.1127C91.4915 100.734 93.154 102.802 93.154 104.383C93.154 106.451 89.5518 107.545 83.0401 107.545V111.681H133.333V107.545C129.453 108.518 125.851 107.545 120.586 100.248Z" fill="black" fill-opacity="0.06"/>
<path d="M189.852 0.777954L133.334 0.777954V5.17818C145.454 5.64137 148.669 7.14671 148.669 18.4947V95.0355C148.669 106.847 145.454 107.889 133.334 108.352V112.289L188.739 112.289L188.739 108.468C176.124 108.005 172.909 106.499 172.909 95.1513V65.9708L188.739 65.9708C219.286 65.9708 235.734 54.6229 235.734 33.3165C235.239 15.1366 222.501 0.777954 189.852 0.777954ZM172.414 59.6021V13.6313C172.414 9.69421 174.022 7.2625 182.432 7.2625C198.262 7.2625 210.381 15.7156 210.381 31.0006C210.381 48.7173 200.364 59.6021 172.414 59.6021Z" fill="black" fill-opacity="0.06"/>
<path d="M287.898 30.7999C279.57 30.7999 274.326 38.4582 271.653 45.6378H271.242V33.3128C271.242 31.7572 271.242 30.7999 270.316 30.7999C268.98 30.7999 252.735 35.9453 245.332 37.3813V41.9284C251.912 41.9284 253.66 43.484 253.66 52.0995V98.5278C253.66 105.707 250.987 107.263 245.332 108.22V112.289H281.729V108.34C275.149 108.34 271.242 106.306 271.242 97.5706V52.6978C273.401 48.6294 276.074 46.1165 278.747 46.1165C280.495 46.1165 281.832 47.1934 282.654 47.6721C283.991 48.749 285.739 51.2619 289.646 51.2619C294.067 51.2619 297.562 47.1934 297.562 42.048C297.974 36.9026 294.889 30.7999 287.898 30.7999Z" fill="black" fill-opacity="0.06"/>
<path d="M338.132 30.7999C314.112 30.7999 297.599 47.9494 297.599 71.5444C297.599 95.1393 314.112 112.289 338.132 112.289C362.152 112.289 378.665 95.1393 378.665 71.5444C378.665 47.9494 362.152 30.7999 338.132 30.7999ZM338.132 105.383C325.371 105.383 320.492 95.0242 320.492 71.5444C320.492 47.9494 325.872 37.7058 338.132 37.7058C350.892 37.7058 355.771 48.0645 355.771 71.5444C356.272 95.1393 350.892 105.383 338.132 105.383Z" fill="black" fill-opacity="0.06"/>
</svg>
